<svg xmlns="http://www.w3.org/2000/svg" width="1706.667" height="1706.667" version="1.0" viewBox="0 0 1280 1280"><path d="M447 110c-126.1 11-236.8 84.3-295.9 196.1-41.4 78.5-52.9 172.3-31.5 258.4 23.7 95.1 84.4 177.1 168.8 227.8 112.1 67.3 252.3 69.5 365.9 5.9 11.9-6.7 33.3-20.4 40.2-25.8l3-2.4L894 966.4c152.9 152.8 197.7 197 202 199.4 19.9 11 43 7.2 60-9.8 16.9-16.9 20.8-40.3 9.8-59.9-2.4-4.4-46.6-49.2-199.4-202.1L770 697.5l2.4-3c5.4-6.9 18.9-27.9 25.7-40 42.7-76.2 56.4-165.2 38.8-251.7-11.5-57-35.5-107.7-74-156.7-10.3-13.1-41.1-44.1-53.9-54.3-57-45.2-119.4-71.8-189-80.3-15-1.9-58.3-2.7-73-1.5zm59.2 92.5c95.3 10.1 178 68.4 219.2 154.5 11.5 24.1 18.7 46.7 23.1 72.5 13.5 79.3-7.1 158.8-57.4 221.2-9.6 12-29.5 31.8-41.4 41.3-41.2 32.9-89.7 52.9-143.2 59.1-13.7 1.6-45.6 1.6-59.5 0-52.9-6-102.4-26.6-144-59.7-10.9-8.7-32.7-30.5-41.4-41.4-31.1-39-50.8-84.8-58.3-135.5-2.5-17.1-2.5-59.3 0-75.5 5.1-33 13.1-58.5 26.9-86.2 32.3-64.7 89.1-114.2 157.3-137.2 19.3-6.6 42.6-11.6 62-13.5 14.5-1.4 41.9-1.2 56.7.4z"/></svg>